<svg xmlns="http://www.w3.org/2000/svg" width="179" height="36" viewBox="0 0 179 36">
    <g fill="none" fill-rule="evenodd">
        <path fill="#FFF" fill-rule="nonzero" d="M99.425.008c6.585 0 8.384 3.907 7.852 8.22-.096.836-.232 1.879-.232 1.879H37.23s.178-1.395.362-2.966c.514-4.28 4.054-7.143 9.43-7.133H99.425zm7.153 13.949s-.15 1.42-.367 2.976c-.421 3.08-2.695 5.38-6.91 5.38H84.433l-1.68 13.678L70.916 36 73.6 13.957h32.978zM4.412 0l31.672.01-1.243 10.098H3.178L4.412 0zM2.705 13.95h31.661l-1.02 8.352H13.519l-.508 4.126h19.827l-1.175 9.565H0L2.705 13.95zM110.695.008h25.822c4.08 0 8.333 1.924 7.485 8.547-.15 1.18-.193 1.552-.193 1.552h-34.347L110.696.008zm-4.414 35.983l2.705-22.043 11.843.008-2.7 22.03-11.848.005zm22.495 0l2.699-22.043 11.85.008-2.705 22.03-11.844.005zM62.77 13.959c3.71 0 8.428 1.645 7.495 8.542-.165 1.18-.746 6.833-1.394 8.41-1.999 4.86-7.872 5.022-8.71 5.082-1.01.009-26.107 0-26.107 0l1.17-9.561h23.046l.503-4.136s-13.823.014-16.015.014c-4.03 0-6.875-2.604-6-8.362 4.045 0 23.955.01 26.012.01z"/>
        <path fill="#F9B300" d="M169.75 14.26l1.082-9.117h-9.155l-1.08 9.116h-8.582l-1.041 9.04h8.605l-1.104 9.272h9.154l1.104-9.273h8.648l1.042-9.039z"/>
    </g>
</svg>
